<mxfile host="Electron" agent="Mozilla/5.0 (Windows NT 10.0; Win64; x64) AppleWebKit/537.36 (KHTML, like Gecko) draw.io/24.7.17 Chrome/128.0.6613.36 Electron/32.0.1 Safari/537.36" version="24.7.17">
  <diagram name="Page-1" id="-GqhQJdCoAuXpp2twMTw">
    <mxGraphModel dx="2334" dy="895" grid="1" gridSize="10" guides="1" tooltips="1" connect="1" arrows="1" fold="1" page="1" pageScale="1" pageWidth="850" pageHeight="1100" math="0" shadow="0">
      <root>
        <mxCell id="0" />
        <mxCell id="1" parent="0" />
        <mxCell id="jKYQfX3B9M3EQDvaG-kZ-27" value="" style="rounded=1;whiteSpace=wrap;html=1;fillColor=none;strokeColor=#99004D;strokeWidth=3;movable=1;resizable=1;rotatable=1;deletable=1;editable=1;locked=0;connectable=1;" vertex="1" parent="1">
          <mxGeometry x="110" y="177.5" width="660" height="600" as="geometry" />
        </mxCell>
        <mxCell id="jKYQfX3B9M3EQDvaG-kZ-64" style="edgeStyle=orthogonalEdgeStyle;rounded=0;orthogonalLoop=1;jettySize=auto;html=1;exitX=1;exitY=0.5;exitDx=0;exitDy=0;entryX=0;entryY=0.5;entryDx=0;entryDy=0;strokeWidth=7;" edge="1" parent="1" source="jKYQfX3B9M3EQDvaG-kZ-26" target="jKYQfX3B9M3EQDvaG-kZ-34">
          <mxGeometry relative="1" as="geometry" />
        </mxCell>
        <mxCell id="jKYQfX3B9M3EQDvaG-kZ-26" value="" style="rounded=1;whiteSpace=wrap;html=1;fillColor=none;dashed=1;" vertex="1" parent="1">
          <mxGeometry x="365" y="195" width="225" height="565" as="geometry" />
        </mxCell>
        <mxCell id="jKYQfX3B9M3EQDvaG-kZ-1" value="MCU" style="rounded=0;whiteSpace=wrap;html=1;" vertex="1" parent="1">
          <mxGeometry x="160" y="220" width="120" height="270" as="geometry" />
        </mxCell>
        <mxCell id="jKYQfX3B9M3EQDvaG-kZ-2" value="Chamber Temperature&lt;div&gt;Thermistor [PN]&lt;/div&gt;" style="shape=parallelogram;perimeter=parallelogramPerimeter;whiteSpace=wrap;html=1;fixedSize=1;" vertex="1" parent="1">
          <mxGeometry x="395" y="230" width="180" height="60" as="geometry" />
        </mxCell>
        <mxCell id="jKYQfX3B9M3EQDvaG-kZ-3" value="&lt;div&gt;O2 Content&lt;/div&gt;&lt;div&gt;Gas sensor [PN]&lt;/div&gt;" style="shape=parallelogram;perimeter=parallelogramPerimeter;whiteSpace=wrap;html=1;fixedSize=1;" vertex="1" parent="1">
          <mxGeometry x="390" y="300" width="180" height="60" as="geometry" />
        </mxCell>
        <mxCell id="jKYQfX3B9M3EQDvaG-kZ-4" value="&lt;div&gt;CO2 Content&lt;/div&gt;&lt;div&gt;Gas sensor [PN]&lt;/div&gt;" style="shape=parallelogram;perimeter=parallelogramPerimeter;whiteSpace=wrap;html=1;fixedSize=1;" vertex="1" parent="1">
          <mxGeometry x="390" y="370" width="180" height="60" as="geometry" />
        </mxCell>
        <mxCell id="jKYQfX3B9M3EQDvaG-kZ-6" value="Micoprocessor&lt;div&gt;[PN]&lt;/div&gt;" style="rounded=0;whiteSpace=wrap;html=1;" vertex="1" parent="1">
          <mxGeometry x="160" y="690" width="120" height="60" as="geometry" />
        </mxCell>
        <mxCell id="jKYQfX3B9M3EQDvaG-kZ-7" value="Real Time Clock&lt;div&gt;[PN]&lt;/div&gt;" style="rounded=0;whiteSpace=wrap;html=1;" vertex="1" parent="1">
          <mxGeometry x="160" y="580" width="120" height="60" as="geometry" />
        </mxCell>
        <mxCell id="jKYQfX3B9M3EQDvaG-kZ-10" value="" style="endArrow=none;html=1;rounded=0;strokeColor=#E31B2F;strokeWidth=2;jumpStyle=arc;jumpSize=6;" edge="1" parent="1">
          <mxGeometry width="50" height="50" relative="1" as="geometry">
            <mxPoint x="10" y="320" as="sourcePoint" />
            <mxPoint x="100" y="320" as="targetPoint" />
          </mxGeometry>
        </mxCell>
        <mxCell id="jKYQfX3B9M3EQDvaG-kZ-12" value="&lt;b&gt;5-28V&lt;/b&gt;" style="text;html=1;align=center;verticalAlign=middle;resizable=0;points=[];autosize=1;strokeColor=none;fillColor=none;" vertex="1" parent="1">
          <mxGeometry x="10" y="290" width="60" height="30" as="geometry" />
        </mxCell>
        <mxCell id="jKYQfX3B9M3EQDvaG-kZ-15" value="" style="endArrow=none;html=1;rounded=0;strokeColor=#97D077;strokeWidth=2;jumpStyle=arc;jumpSize=6;" edge="1" parent="1">
          <mxGeometry width="50" height="50" relative="1" as="geometry">
            <mxPoint x="10" y="379.75" as="sourcePoint" />
            <mxPoint x="100" y="379.75" as="targetPoint" />
          </mxGeometry>
        </mxCell>
        <mxCell id="jKYQfX3B9M3EQDvaG-kZ-16" value="&lt;b&gt;3.3V Enable (Optional)&lt;/b&gt;" style="text;html=1;align=center;verticalAlign=middle;resizable=0;points=[];autosize=1;strokeColor=none;fillColor=none;strokeWidth=0;" vertex="1" parent="1">
          <mxGeometry x="-35" y="349.75" width="150" height="30" as="geometry" />
        </mxCell>
        <mxCell id="jKYQfX3B9M3EQDvaG-kZ-17" value="" style="endArrow=none;html=1;rounded=0;strokeColor=#97D077;strokeWidth=2;jumpStyle=arc;jumpSize=6;" edge="1" parent="1">
          <mxGeometry width="50" height="50" relative="1" as="geometry">
            <mxPoint x="10" y="440" as="sourcePoint" />
            <mxPoint x="100" y="440" as="targetPoint" />
          </mxGeometry>
        </mxCell>
        <mxCell id="jKYQfX3B9M3EQDvaG-kZ-18" value="&lt;b&gt;UART&lt;/b&gt;" style="text;html=1;align=center;verticalAlign=middle;resizable=0;points=[];autosize=1;strokeColor=none;fillColor=none;" vertex="1" parent="1">
          <mxGeometry x="10" y="410" width="60" height="30" as="geometry" />
        </mxCell>
        <mxCell id="jKYQfX3B9M3EQDvaG-kZ-21" value="&lt;b&gt;5-28V&lt;/b&gt;" style="text;html=1;align=center;verticalAlign=middle;resizable=0;points=[];autosize=1;strokeColor=none;fillColor=none;" vertex="1" parent="1">
          <mxGeometry x="10" y="290" width="60" height="30" as="geometry" />
        </mxCell>
        <mxCell id="jKYQfX3B9M3EQDvaG-kZ-22" value="" style="endArrow=none;html=1;rounded=0;strokeColor=#000000;strokeWidth=2;jumpStyle=arc;jumpSize=6;" edge="1" parent="1">
          <mxGeometry width="50" height="50" relative="1" as="geometry">
            <mxPoint x="10" y="330" as="sourcePoint" />
            <mxPoint x="100" y="330" as="targetPoint" />
          </mxGeometry>
        </mxCell>
        <mxCell id="jKYQfX3B9M3EQDvaG-kZ-23" value="&lt;b&gt;GND&lt;/b&gt;" style="text;html=1;align=center;verticalAlign=middle;resizable=0;points=[];autosize=1;strokeColor=none;fillColor=none;" vertex="1" parent="1">
          <mxGeometry x="15" y="325" width="50" height="30" as="geometry" />
        </mxCell>
        <mxCell id="jKYQfX3B9M3EQDvaG-kZ-24" value="&lt;b&gt;Ethernet?&lt;/b&gt;" style="text;html=1;align=center;verticalAlign=middle;resizable=0;points=[];autosize=1;strokeColor=none;fillColor=none;" vertex="1" parent="1">
          <mxGeometry y="459.44" width="80" height="30" as="geometry" />
        </mxCell>
        <mxCell id="jKYQfX3B9M3EQDvaG-kZ-25" value="" style="endArrow=none;html=1;rounded=0;strokeColor=#97D077;strokeWidth=2;jumpStyle=arc;jumpSize=6;" edge="1" parent="1">
          <mxGeometry width="50" height="50" relative="1" as="geometry">
            <mxPoint x="10" y="489.44" as="sourcePoint" />
            <mxPoint x="100" y="489.44" as="targetPoint" />
          </mxGeometry>
        </mxCell>
        <mxCell id="jKYQfX3B9M3EQDvaG-kZ-28" value="&lt;font style=&quot;font-size: 14px;&quot;&gt;&lt;b&gt;Hermetic&amp;nbsp; Chamber&lt;/b&gt;&lt;/font&gt;" style="text;html=1;align=center;verticalAlign=middle;whiteSpace=wrap;rounded=0;" vertex="1" parent="1">
          <mxGeometry x="350" y="140" width="180" height="30" as="geometry" />
        </mxCell>
        <mxCell id="jKYQfX3B9M3EQDvaG-kZ-29" value="&lt;font style=&quot;font-size: 14px;&quot;&gt;&lt;b&gt;Host Spacecraft Interface&lt;/b&gt;&lt;/font&gt;" style="text;html=1;align=center;verticalAlign=middle;whiteSpace=wrap;rounded=0;" vertex="1" parent="1">
          <mxGeometry x="-200" y="390" width="180" height="30" as="geometry" />
        </mxCell>
        <mxCell id="jKYQfX3B9M3EQDvaG-kZ-34" value="&lt;i&gt;&lt;b&gt;n Germination Chambers&lt;/b&gt;&lt;/i&gt;&lt;div&gt;&lt;i&gt;&lt;b&gt;[4x perhaps, in a 1U payload]&lt;/b&gt;&lt;/i&gt;&lt;/div&gt;" style="text;html=1;align=center;verticalAlign=middle;whiteSpace=wrap;rounded=0;" vertex="1" parent="1">
          <mxGeometry x="650" y="452.5" width="110" height="50" as="geometry" />
        </mxCell>
        <mxCell id="jKYQfX3B9M3EQDvaG-kZ-36" value="&lt;font style=&quot;font-size: 12px;&quot;&gt;Germination Chamber&lt;/font&gt;" style="text;html=1;align=center;verticalAlign=middle;whiteSpace=wrap;rounded=0;" vertex="1" parent="1">
          <mxGeometry x="390" y="190" width="180" height="30" as="geometry" />
        </mxCell>
        <mxCell id="jKYQfX3B9M3EQDvaG-kZ-38" value="&lt;div&gt;Observation Camera&lt;/div&gt;&lt;div&gt;Gas sensor [PN]&lt;/div&gt;" style="shape=parallelogram;perimeter=parallelogramPerimeter;whiteSpace=wrap;html=1;fixedSize=1;" vertex="1" parent="1">
          <mxGeometry x="390" y="445" width="180" height="60" as="geometry" />
        </mxCell>
        <mxCell id="jKYQfX3B9M3EQDvaG-kZ-57" style="edgeStyle=orthogonalEdgeStyle;rounded=0;orthogonalLoop=1;jettySize=auto;html=1;exitX=0;exitY=0.5;exitDx=0;exitDy=0;entryX=1;entryY=0.75;entryDx=0;entryDy=0;jumpStyle=arc;jumpSize=6;" edge="1" parent="1" source="jKYQfX3B9M3EQDvaG-kZ-39" target="jKYQfX3B9M3EQDvaG-kZ-1">
          <mxGeometry relative="1" as="geometry">
            <Array as="points">
              <mxPoint x="330" y="640" />
              <mxPoint x="330" y="423" />
            </Array>
          </mxGeometry>
        </mxCell>
        <mxCell id="jKYQfX3B9M3EQDvaG-kZ-39" value="&lt;div&gt;Germination System&lt;/div&gt;&lt;div&gt;- water supply valve&lt;/div&gt;" style="shape=parallelogram;perimeter=parallelogramPerimeter;whiteSpace=wrap;html=1;fixedSize=1;" vertex="1" parent="1">
          <mxGeometry x="387.5" y="610" width="180" height="60" as="geometry" />
        </mxCell>
        <mxCell id="jKYQfX3B9M3EQDvaG-kZ-41" value="&lt;div&gt;LED Lighting System&lt;/div&gt;" style="shape=parallelogram;perimeter=parallelogramPerimeter;whiteSpace=wrap;html=1;fixedSize=1;" vertex="1" parent="1">
          <mxGeometry x="390" y="527.5" width="180" height="60" as="geometry" />
        </mxCell>
        <mxCell id="jKYQfX3B9M3EQDvaG-kZ-45" value="&lt;div&gt;Heater&lt;/div&gt;&lt;div&gt;[~1W]&lt;/div&gt;" style="shape=parallelogram;perimeter=parallelogramPerimeter;whiteSpace=wrap;html=1;fixedSize=1;" vertex="1" parent="1">
          <mxGeometry x="390" y="690" width="180" height="60" as="geometry" />
        </mxCell>
        <mxCell id="jKYQfX3B9M3EQDvaG-kZ-47" value="Voltage Regulator&lt;div&gt;[5V?]&lt;/div&gt;" style="rounded=0;whiteSpace=wrap;html=1;" vertex="1" parent="1">
          <mxGeometry x="160" y="510" width="120" height="60" as="geometry" />
        </mxCell>
        <mxCell id="jKYQfX3B9M3EQDvaG-kZ-52" style="edgeStyle=orthogonalEdgeStyle;rounded=0;orthogonalLoop=1;jettySize=auto;html=1;exitX=0;exitY=0.5;exitDx=0;exitDy=0;entryX=1.006;entryY=0.065;entryDx=0;entryDy=0;entryPerimeter=0;jumpStyle=arc;jumpSize=6;" edge="1" parent="1" source="jKYQfX3B9M3EQDvaG-kZ-2" target="jKYQfX3B9M3EQDvaG-kZ-1">
          <mxGeometry relative="1" as="geometry">
            <Array as="points">
              <mxPoint x="380" y="260" />
              <mxPoint x="380" y="238" />
            </Array>
          </mxGeometry>
        </mxCell>
        <mxCell id="jKYQfX3B9M3EQDvaG-kZ-53" style="edgeStyle=orthogonalEdgeStyle;rounded=0;orthogonalLoop=1;jettySize=auto;html=1;exitX=0;exitY=0.5;exitDx=0;exitDy=0;entryX=0.917;entryY=0.185;entryDx=0;entryDy=0;entryPerimeter=0;jumpStyle=arc;jumpSize=6;" edge="1" parent="1" source="jKYQfX3B9M3EQDvaG-kZ-3" target="jKYQfX3B9M3EQDvaG-kZ-1">
          <mxGeometry relative="1" as="geometry">
            <Array as="points">
              <mxPoint x="380" y="330" />
              <mxPoint x="380" y="270" />
            </Array>
          </mxGeometry>
        </mxCell>
        <mxCell id="jKYQfX3B9M3EQDvaG-kZ-54" style="edgeStyle=orthogonalEdgeStyle;rounded=0;orthogonalLoop=1;jettySize=auto;html=1;exitX=0;exitY=0.5;exitDx=0;exitDy=0;entryX=0.989;entryY=0.314;entryDx=0;entryDy=0;entryPerimeter=0;jumpStyle=arc;jumpSize=6;" edge="1" parent="1" source="jKYQfX3B9M3EQDvaG-kZ-4" target="jKYQfX3B9M3EQDvaG-kZ-1">
          <mxGeometry relative="1" as="geometry">
            <Array as="points">
              <mxPoint x="370" y="400" />
              <mxPoint x="370" y="305" />
            </Array>
          </mxGeometry>
        </mxCell>
        <mxCell id="jKYQfX3B9M3EQDvaG-kZ-56" style="edgeStyle=orthogonalEdgeStyle;rounded=0;orthogonalLoop=1;jettySize=auto;html=1;exitX=0;exitY=0.5;exitDx=0;exitDy=0;entryX=0.997;entryY=0.468;entryDx=0;entryDy=0;entryPerimeter=0;jumpStyle=arc;jumpSize=6;" edge="1" parent="1" source="jKYQfX3B9M3EQDvaG-kZ-41" target="jKYQfX3B9M3EQDvaG-kZ-1">
          <mxGeometry relative="1" as="geometry">
            <Array as="points">
              <mxPoint x="350" y="557" />
              <mxPoint x="350" y="346" />
            </Array>
          </mxGeometry>
        </mxCell>
        <mxCell id="jKYQfX3B9M3EQDvaG-kZ-58" style="edgeStyle=orthogonalEdgeStyle;rounded=0;orthogonalLoop=1;jettySize=auto;html=1;exitX=0;exitY=0.5;exitDx=0;exitDy=0;entryX=0.996;entryY=0.852;entryDx=0;entryDy=0;entryPerimeter=0;jumpStyle=arc;jumpSize=6;" edge="1" parent="1" source="jKYQfX3B9M3EQDvaG-kZ-45" target="jKYQfX3B9M3EQDvaG-kZ-1">
          <mxGeometry relative="1" as="geometry">
            <Array as="points">
              <mxPoint x="310" y="720" />
              <mxPoint x="310" y="450" />
            </Array>
          </mxGeometry>
        </mxCell>
        <mxCell id="jKYQfX3B9M3EQDvaG-kZ-60" style="edgeStyle=orthogonalEdgeStyle;rounded=0;orthogonalLoop=1;jettySize=auto;html=1;exitX=0.5;exitY=0;exitDx=0;exitDy=0;entryX=0.5;entryY=1;entryDx=0;entryDy=0;endArrow=none;endFill=0;strokeColor=#E31B2F;strokeWidth=3;jumpStyle=arc;jumpSize=6;" edge="1" parent="1" source="jKYQfX3B9M3EQDvaG-kZ-59" target="jKYQfX3B9M3EQDvaG-kZ-7">
          <mxGeometry relative="1" as="geometry" />
        </mxCell>
        <mxCell id="jKYQfX3B9M3EQDvaG-kZ-59" value="3.3V Coin Cell&lt;div&gt;[PN]&lt;/div&gt;" style="rounded=1;whiteSpace=wrap;html=1;fillColor=none;strokeColor=#E31B2F;strokeWidth=3;" vertex="1" parent="1">
          <mxGeometry x="160" y="650" width="120" height="30" as="geometry" />
        </mxCell>
        <mxCell id="jKYQfX3B9M3EQDvaG-kZ-61" style="edgeStyle=orthogonalEdgeStyle;rounded=1;orthogonalLoop=1;jettySize=auto;html=1;exitX=0;exitY=0.5;exitDx=0;exitDy=0;entryX=1;entryY=0.75;entryDx=0;entryDy=0;jumpStyle=arc;jumpSize=6;targetPerimeterSpacing=13;sourcePerimeterSpacing=10;curved=0;" edge="1" parent="1" source="jKYQfX3B9M3EQDvaG-kZ-38" target="jKYQfX3B9M3EQDvaG-kZ-6">
          <mxGeometry relative="1" as="geometry">
            <Array as="points">
              <mxPoint x="290" y="475" />
              <mxPoint x="290" y="735" />
            </Array>
          </mxGeometry>
        </mxCell>
      </root>
    </mxGraphModel>
  </diagram>
</mxfile>
